<svg xmlns="http://www.w3.org/2000/svg" xmlns:xlink="http://www.w3.org/1999/xlink" version="1.1" class="marks" width="445" height="347" viewBox="0 0 445 347"><rect width="445" height="347" fill="white"/><g fill="none" stroke-miterlimit="10" transform="translate(39,10)"><g class="mark-group role-frame root" role="graphics-object" aria-roledescription="group mark container"><g transform="translate(0,0)"><path class="background" aria-hidden="true" d="M0.5,0.5h400v300h-400Z" stroke="#ddd"/><g><g class="mark-group role-axis" role="graphics-symbol" aria-roledescription="axis" aria-label="X-axis for a linear scale with values from 0 to 16"><g transform="translate(0.5,300.5)"><path class="background" aria-hidden="true" d="M0,0h0v0h0Z" pointer-events="none"/><g><g class="mark-rule role-axis-grid" pointer-events="none"><line transform="translate(0,-300)" x2="0" y2="300" stroke="#ddd" stroke-width="1" opacity="1"/><line transform="translate(50,-300)" x2="0" y2="300" stroke="#ddd" stroke-width="1" opacity="1"/><line transform="translate(100,-300)" x2="0" y2="300" stroke="#ddd" stroke-width="1" opacity="1"/><line transform="translate(150,-300)" x2="0" y2="300" stroke="#ddd" stroke-width="1" opacity="1"/><line transform="translate(200,-300)" x2="0" y2="300" stroke="#ddd" stroke-width="1" opacity="1"/><line transform="translate(250,-300)" x2="0" y2="300" stroke="#ddd" stroke-width="1" opacity="1"/><line transform="translate(300,-300)" x2="0" y2="300" stroke="#ddd" stroke-width="1" opacity="1"/><line transform="translate(350,-300)" x2="0" y2="300" stroke="#ddd" stroke-width="1" opacity="1"/><line transform="translate(400,-300)" x2="0" y2="300" stroke="#ddd" stroke-width="1" opacity="1"/></g></g><path class="foreground" aria-hidden="true" d="" pointer-events="none" display="none"/></g></g><g class="mark-group role-axis" role="graphics-symbol" aria-roledescription="axis" aria-label="Y-axis for a linear scale with values from 0 to 14"><g transform="translate(0.5,0.5)"><path class="background" aria-hidden="true" d="M0,0h0v0h0Z" pointer-events="none"/><g><g class="mark-rule role-axis-grid" pointer-events="none"><line transform="translate(0,300)" x2="400" y2="0" stroke="#ddd" stroke-width="1" opacity="1"/><line transform="translate(0,257)" x2="400" y2="0" stroke="#ddd" stroke-width="1" opacity="1"/><line transform="translate(0,214)" x2="400" y2="0" stroke="#ddd" stroke-width="1" opacity="1"/><line transform="translate(0,171)" x2="400" y2="0" stroke="#ddd" stroke-width="1" opacity="1"/><line transform="translate(0,129)" x2="400" y2="0" stroke="#ddd" stroke-width="1" opacity="1"/><line transform="translate(0,86)" x2="400" y2="0" stroke="#ddd" stroke-width="1" opacity="1"/><line transform="translate(0,43)" x2="400" y2="0" stroke="#ddd" stroke-width="1" opacity="1"/><line transform="translate(0,0)" x2="400" y2="0" stroke="#ddd" stroke-width="1" opacity="1"/></g></g><path class="foreground" aria-hidden="true" d="" pointer-events="none" display="none"/></g></g><g class="mark-group role-axis" role="graphics-symbol" aria-roledescription="axis" aria-label="X-axis titled 'Thousands of years before present' for a linear scale with values from 0 to 16"><g transform="translate(0.5,300.5)"><path class="background" aria-hidden="true" d="M0,0h0v0h0Z" pointer-events="none"/><g><g class="mark-rule role-axis-tick" pointer-events="none"><line transform="translate(0,0)" x2="0" y2="5" stroke="#888" stroke-width="1" opacity="1"/><line transform="translate(50,0)" x2="0" y2="5" stroke="#888" stroke-width="1" opacity="1"/><line transform="translate(100,0)" x2="0" y2="5" stroke="#888" stroke-width="1" opacity="1"/><line transform="translate(150,0)" x2="0" y2="5" stroke="#888" stroke-width="1" opacity="1"/><line transform="translate(200,0)" x2="0" y2="5" stroke="#888" stroke-width="1" opacity="1"/><line transform="translate(250,0)" x2="0" y2="5" stroke="#888" stroke-width="1" opacity="1"/><line transform="translate(300,0)" x2="0" y2="5" stroke="#888" stroke-width="1" opacity="1"/><line transform="translate(350,0)" x2="0" y2="5" stroke="#888" stroke-width="1" opacity="1"/><line transform="translate(400,0)" x2="0" y2="5" stroke="#888" stroke-width="1" opacity="1"/></g><g class="mark-text role-axis-label" pointer-events="none"><text text-anchor="start" transform="translate(0,15)" font-family="sans-serif" font-size="10px" fill="#000" opacity="1">0</text><text text-anchor="middle" transform="translate(50,15)" font-family="sans-serif" font-size="10px" fill="#000" opacity="1">2</text><text text-anchor="middle" transform="translate(100,15)" font-family="sans-serif" font-size="10px" fill="#000" opacity="1">4</text><text text-anchor="middle" transform="translate(150,15)" font-family="sans-serif" font-size="10px" fill="#000" opacity="1">6</text><text text-anchor="middle" transform="translate(200,15)" font-family="sans-serif" font-size="10px" fill="#000" opacity="1">8</text><text text-anchor="middle" transform="translate(250,15)" font-family="sans-serif" font-size="10px" fill="#000" opacity="1">10</text><text text-anchor="middle" transform="translate(300,15)" font-family="sans-serif" font-size="10px" fill="#000" opacity="1">12</text><text text-anchor="middle" transform="translate(350,15)" font-family="sans-serif" font-size="10px" fill="#000" opacity="1">14</text><text text-anchor="end" transform="translate(400,15)" font-family="sans-serif" font-size="10px" fill="#000" opacity="1">16</text></g><g class="mark-rule role-axis-domain" pointer-events="none"><line transform="translate(0,0)" x2="400" y2="0" stroke="#888" stroke-width="1" opacity="1"/></g><g class="mark-text role-axis-title" pointer-events="none"><text text-anchor="middle" transform="translate(200,30)" font-family="sans-serif" font-size="11px" font-weight="bold" fill="#000" opacity="1">Thousands of years before present</text></g></g><path class="foreground" aria-hidden="true" d="" pointer-events="none" display="none"/></g></g><g class="mark-group role-axis" role="graphics-symbol" aria-roledescription="axis" aria-label="Y-axis titled 'SST' for a linear scale with values from 0 to 14"><g transform="translate(0.5,0.5)"><path class="background" aria-hidden="true" d="M0,0h0v0h0Z" pointer-events="none"/><g><g class="mark-rule role-axis-tick" pointer-events="none"><line transform="translate(0,300)" x2="-5" y2="0" stroke="#888" stroke-width="1" opacity="1"/><line transform="translate(0,257)" x2="-5" y2="0" stroke="#888" stroke-width="1" opacity="1"/><line transform="translate(0,214)" x2="-5" y2="0" stroke="#888" stroke-width="1" opacity="1"/><line transform="translate(0,171)" x2="-5" y2="0" stroke="#888" stroke-width="1" opacity="1"/><line transform="translate(0,129)" x2="-5" y2="0" stroke="#888" stroke-width="1" opacity="1"/><line transform="translate(0,86)" x2="-5" y2="0" stroke="#888" stroke-width="1" opacity="1"/><line transform="translate(0,43)" x2="-5" y2="0" stroke="#888" stroke-width="1" opacity="1"/><line transform="translate(0,0)" x2="-5" y2="0" stroke="#888" stroke-width="1" opacity="1"/></g><g class="mark-text role-axis-label" pointer-events="none"><text text-anchor="end" transform="translate(-7,303)" font-family="sans-serif" font-size="10px" fill="#000" opacity="1">0</text><text text-anchor="end" transform="translate(-7,260.14285714285717)" font-family="sans-serif" font-size="10px" fill="#000" opacity="1">2</text><text text-anchor="end" transform="translate(-7,217.28571428571428)" font-family="sans-serif" font-size="10px" fill="#000" opacity="1">4</text><text text-anchor="end" transform="translate(-7,174.42857142857142)" font-family="sans-serif" font-size="10px" fill="#000" opacity="1">6</text><text text-anchor="end" transform="translate(-7,131.57142857142858)" font-family="sans-serif" font-size="10px" fill="#000" opacity="1">8</text><text text-anchor="end" transform="translate(-7,88.71428571428571)" font-family="sans-serif" font-size="10px" fill="#000" opacity="1">10</text><text text-anchor="end" transform="translate(-7,45.85714285714287)" font-family="sans-serif" font-size="10px" fill="#000" opacity="1">12</text><text text-anchor="end" transform="translate(-7,3)" font-family="sans-serif" font-size="10px" fill="#000" opacity="1">14</text></g><g class="mark-rule role-axis-domain" pointer-events="none"><line transform="translate(0,300)" x2="0" y2="-300" stroke="#888" stroke-width="1" opacity="1"/></g><g class="mark-text role-axis-title" pointer-events="none"><text text-anchor="middle" transform="translate(-22.123046875,150) rotate(-90) translate(0,-2)" font-family="sans-serif" font-size="11px" font-weight="bold" fill="#000" opacity="1">SST</text></g></g><path class="foreground" aria-hidden="true" d="" pointer-events="none" display="none"/></g></g><g class="mark-line role-mark layer_0_marks" role="graphics-symbol" aria-roledescription="line mark container"><path d="M4,49.28571428571431L4,51.428571428571445L7.249999999999999,53.571428571428584L7.249999999999999,55.714285714285715L13.750000000000002,57.857142857142854L17,55.714285714285715L20.5,51.428571428571445L23.75,57.857142857142854L30.25,53.571428571428584L33.5,53.571428571428584L36.75,49.28571428571431L40.25,51.428571428571445L46.75,53.571428571428584L46.75,55.714285714285715L50,57.857142857142854L50,60.00000000000002L53.25,66.42857142857143L56.49999999999999,53.571428571428584L63.24999999999999,47.14285714285714L66.5,45.00000000000001L69.75,40.71428571428574L73,51.428571428571445L79.5,38.5714285714286L83,57.857142857142854L86.25,75L89.5,68.57142857142856L89.5,68.57142857142856L89.5,68.57142857142856L96,64.28571428571429L99.25,70.71428571428572L102.75000000000001,64.28571428571429L106,72.85714285714286L112.5,60.00000000000002L115.75,77.14285714285714L119,72.85714285714286L122.24999999999999,77.14285714285714L129.5,75L132.25,75L135.5,72.85714285714286L138,72.85714285714286L138,68.57142857142856L143.25,68.57142857142856L145.75,70.71428571428572L148.5,68.57142857142856L151.25,68.57142857142856L156.5,77.14285714285714L159.25,81.42857142857144L162.25,89.99999999999999L164.5,83.57142857142857L169.75,77.14285714285714L173,81.42857142857144L173,81.42857142857144L175,70.71428571428572L177.75,72.85714285714286L183,77.14285714285714L185.75,77.14285714285714L188.5,66.42857142857143L193.25,66.42857142857143L196,72.85714285714286L198.5,53.571428571428584L201.25000000000003,68.57142857142856L204.99999999999997,81.42857142857144L209.75,57.857142857142854L212.25,57.857142857142854L215,47.14285714285714L217.75000000000003,57.857142857142854L223,51.428571428571445L223,47.14285714285714L225.74999999999997,49.28571428571431L228.25000000000003,49.28571428571431L231.5,53.571428571428584L234.24999999999997,45.00000000000001L239,47.14285714285714L241.5,62.14285714285715L244.25,27.857142857142858L249.25000000000003,25.71428571428569L251.25000000000003,17.14285714285715L254.25,51.428571428571445L255.50000000000003,42.85714285714287L258.75,45.00000000000001L260,45.00000000000001L263,51.428571428571445L264.5,49.28571428571431L266.5,57.857142857142854L268,53.571428571428584L269.25,64.28571428571429L270.75,68.57142857142856L274.75,79.28571428571428L276.75,60.00000000000002L278.75,19.285714285714285L282.75,19.285714285714285L282.75,45.00000000000001L285.25,49.28571428571431L287.25,62.14285714285715L289.25,96.42857142857142L289.25,94.28571428571428L293.25,120L295,128.57142857142858L299,128.57142857142858L303.25,135L305.25,137.14285714285717L307,139.28571428571428L309,137.14285714285717L313,137.14285714285717L313,139.28571428571428L315,143.57142857142856L317,141.42857142857142L321,126.42857142857144L323,117.85714285714288L325.25,98.57142857142856L327.25,68.57142857142856L329.25,85.71428571428571L333.25,79.28571428571428L335.25,79.28571428571428L337.25,77.14285714285714L339.25,23.571428571428555L343.25,77.14285714285714L345.25,70.71428571428572L347.25,107.14285714285712L349.25,79.28571428571428L353.25,92.14285714285715L355.25,107.14285714285712L357.5,100.7142857142857L359.5,62.14285714285715L365.5,40.71428571428574L367.5,68.57142857142856L369.5,117.85714285714288L373.5,57.857142857142854" stroke="#4c78a8" stroke-width="2"/></g><g class="mark-area role-mark layer_1_marks" role="graphics-symbol" aria-roledescription="area mark container"><path d="M275,300L275,296.969696969697L275,293.93939393939394L275,290.90909090909093L275,287.8787878787879L275,284.8484848484849L275,281.8181818181818L275,278.7878787878788L275,275.75757575757575L275,272.7272727272727L275,269.6969696969697L275,266.66666666666663L275,263.6363636363636L275,260.6060606060606L275,257.57575757575756L275,254.54545454545456L275,251.51515151515153L275,248.4848484848485L275,245.45454545454544L275,242.4242424242424L275,239.3939393939394L275,236.36363636363635L275,233.33333333333334L275,230.3030303030303L275,227.27272727272728L275,224.24242424242425L275,221.21212121212125L275,218.1818181818182L275,215.15151515151513L275,212.12121212121212L275,209.0909090909091L275,206.06060606060606L275,203.03030303030303L275,200.00000000000003L275,196.96969696969697L275,193.93939393939397L275,190.9090909090909L275,187.87878787878788L275,184.84848484848484L275,181.8181818181818L275,178.7878787878788L275,175.75757575757575L275,172.72727272727272L275,169.69696969696972L275,166.66666666666669L275,163.63636363636363L275,160.6060606060606L275,157.5757575757576L275,154.54545454545453L275,151.51515151515153L275,148.4848484848485L275,145.45454545454547L275,142.42424242424244L275,139.3939393939394L275,136.36363636363637L275,133.33333333333331L275,130.3030303030303L275,127.27272727272727L275,124.24242424242425L275,121.21212121212123L275,118.18181818181817L275,115.15151515151516L275,112.12121212121211L275,109.0909090909091L275,106.06060606060608L275,103.03030303030303L275,100.00000000000001L275,96.969696969697L275,93.93939393939394L275,90.90909090909089L275,87.87878787878792L275,84.84848484848486L275,81.81818181818181L275,78.7878787878788L275,75.75757575757578L275,72.72727272727273L275,69.69696969696972L275,66.66666666666666L275,63.63636363636365L275,60.60606060606063L275,57.57575757575758L275,54.54545454545456L275,51.515151515151544L275,48.4848484848485L275,45.454545454545446L275,42.424242424242465L275,39.39393939393941L275,36.36363636363637L275,33.333333333333314L275,30.303030303030333L275,27.27272727272728L275,24.24242424242423L275,21.212121212121215L275,18.181818181818198L275,15.151515151515149L275,12.121212121212132L275,9.090909090909117L275,6.060606060606066L275,3.03030303030305L275,0L375,0L375,3.03030303030305L375,6.060606060606066L375,9.090909090909117L375,12.121212121212132L375,15.151515151515149L375,18.181818181818198L375,21.212121212121215L375,24.24242424242423L375,27.27272727272728L375,30.303030303030333L375,33.333333333333314L375,36.36363636363637L375,39.39393939393941L375,42.424242424242465L375,45.454545454545446L375,48.4848484848485L375,51.515151515151544L375,54.54545454545456L375,57.57575757575758L375,60.60606060606063L375,63.63636363636365L375,66.66666666666666L375,69.69696969696972L375,72.72727272727273L375,75.75757575757578L375,78.7878787878788L375,81.81818181818181L375,84.84848484848486L375,87.87878787878792L375,90.90909090909089L375,93.93939393939394L375,96.969696969697L375,100.00000000000001L375,103.03030303030303L375,106.06060606060608L375,109.0909090909091L375,112.12121212121211L375,115.15151515151516L375,118.18181818181817L375,121.21212121212123L375,124.24242424242425L375,127.27272727272727L375,130.3030303030303L375,133.33333333333331L375,136.36363636363637L375,139.3939393939394L375,142.42424242424244L375,145.45454545454547L375,148.4848484848485L375,151.51515151515153L375,154.54545454545453L375,157.5757575757576L375,160.6060606060606L375,163.63636363636363L375,166.66666666666669L375,169.69696969696972L375,172.72727272727272L375,175.75757575757575L375,178.7878787878788L375,181.8181818181818L375,184.84848484848484L375,187.87878787878788L375,190.9090909090909L375,193.93939393939397L375,196.96969696969697L375,200.00000000000003L375,203.03030303030303L375,206.06060606060606L375,209.0909090909091L375,212.12121212121212L375,215.15151515151513L375,218.1818181818182L375,221.21212121212125L375,224.24242424242425L375,227.27272727272728L375,230.3030303030303L375,233.33333333333334L375,236.36363636363635L375,239.3939393939394L375,242.4242424242424L375,245.45454545454544L375,248.4848484848485L375,251.51515151515153L375,254.54545454545456L375,257.57575757575756L375,260.6060606060606L375,263.6363636363636L375,266.66666666666663L375,269.6969696969697L375,272.7272727272727L375,275.75757575757575L375,278.7878787878788L375,281.8181818181818L375,284.8484848484849L375,287.8787878787879L375,290.90909090909093L375,293.93939393939394L375,296.969696969697L375,300Z" fill="orange" opacity="0.2"/></g><g class="mark-line role-mark layer_2_marks" role="graphics-symbol" aria-roledescription="line mark container"><path d="M4.0000000000000036,53.55173512059167L7.250000000000001,53.640983591687686L13.749999999999996,53.80468473464761L16.999999999999993,53.880858285999565L20.500000000000007,53.95828679155578L23.750000000000004,54.024260933426106L30.25,54.12950124862247L33.5,54.15997883877856L36.74999999999999,54.16682248787078L40.25000000000001,54.13336938882451L46.75,53.66895193262903L50,53.43858769464378L53.25,53.57060819152447L56.49999999999999,54.0501312783107L63.249999999999986,55.653987608106114L66.5,56.52370289334502L69.75,57.37008140665616L73,58.16609804361059L79.5,59.607705678134174L83,60.410577479472316L86.25,61.363966502270706L89.5,62.541637592703545L96,65.55782722526497L99.25000000000001,66.81589790162128L102.75000000000001,68.19079917519933L106,69.1632340669043L112.5,70.30193775431393L115.75,70.64088694140364L119,71.03077171735752L122.24999999999999,71.2493435656954L129.5,71.94183968116788L132.25,72.34911250193538L135.5,72.75470412981552L138,73.16302405184797L143.25,74.01735724851332L145.75,74.3383470597904L148.5,74.65298315748944L151.25,74.90626579355857L156.5,75.35254750020651L159.25,75.54823948572917L162.25,75.71711607629325L164.5,76.07179487604654L169.75,75.98688251798895L173,75.76429462581575L175,75.54350618176919L177.75,74.69434158212971L183,73.09254994311354L185.75,72.07420651113222L188.5,70.72821193142946L193.25,68.21655020646854L196,66.69062376164445L198.5,65.33358949519923L201.25000000000003,63.79871296073001L204.99999999999997,61.81742007165656L209.75,59.308806343418915L212.25,58.09193634729753L215,56.694634502793285L217.75000000000003,55.258834288195224L223,52.65515503478068L225.74999999999997,51.435814835685356L228.25000000000003,50.24523316567563L231.5,49.18273092695495L234.24999999999997,48.39482207980359L239,47.56147202263657L241.5,47.55197547457964L244.25,47.79903396943889L249.25000000000003,48.314427756325294L251.25000000000003,48.603904533778305L254.25,49.01665316210584L255.50000000000003,48.96553109948446L258.75,50.4315884026721L260,50.815966515791L263,53.104880973867395L264.5,54.70812640954023L266.5,57.14337027034121L268,59.23792875813405L269.25,61.26259893382636L270.75,63.840611406299516L274.75,71.21995497703362L276.75,74.95355167411718L278.75,79.07986707792986L282.75,87.64378643475125L285.25,93.06946776226455L287.25,97.14093483830979L289.25,100.98903284869233L293.25,108.71451384050256L295,112.15165238666927L299,119.80037897599038L303.25,125.44287795557783L305.25,126.90818597743359L307,127.87089023212712L309,128.25028802655686L313,125.01449749243996L315,123.66397967315478L317,121.0712660595428L321,114.01252131176103L323,110.75502895210614L325.25,106.91806827932983L327.25,103.60965724497079L329.25,100.35755126003578L333.25,93.94448044897304L335.25,91.04198535187676L337.25,88.20789867987227L339.25,85.63543389929592L343.25,81.57824116991517L345.25,80.28924255064445L347.25,78.93787533293904L349.25,77.57164991610868L353.25,74.9166298732174L355.25,73.63977344253632L357.5,72.23498207193498L359.5,71.00536141680053L365.5,67.35270619556604L367.5,66.13312013237908L369.5,64.90758721161485L373.5,62.42773525269809" stroke="black" stroke-width="2"/></g></g><path class="foreground" aria-hidden="true" d="" display="none"/></g></g></g></svg>